<svg width="221" height="54" viewBox="0 0 221 54" fill="none" xmlns="http://www.w3.org/2000/svg">
<g clip-path="url(#clip0_607_21934)">
<mask id="mask0_607_21934" style="mask-type:alpha" maskUnits="userSpaceOnUse" x="0" y="0" width="48" height="48">
<path fill-rule="evenodd" clip-rule="evenodd" d="M31.3032 0H47.5201V6.01776H38.0917V14.177C38.0917 19.3309 39.2699 22.4745 41.1088 24.0257C43.0718 25.6816 46.0647 26.6131 47.5201 26.6131V32.5271C44.7013 32.5271 40.6715 31.5682 37.2917 28.7171C33.7877 25.7612 31.3032 21.0418 31.3032 14.177V0ZM16.2169 47.3112H0V40.2559H9.42845V33.1342C9.42845 27.9802 7.87305 24.8367 6.03421 23.2855C4.07123 21.6295 1.45544 20.6981 0 20.6981V14.7841C2.81879 14.7841 6.84862 15.743 10.2284 18.5941C13.7324 21.5499 16.2169 26.2694 16.2169 33.1342V47.3112ZM6.25679e-05 7.47074C9.70931 7.47074 18.1755 14.6457 20.4611 23.8858C23.4867 36.118 34.6854 47.52 47.5195 47.52V41.0872C37.8102 41.0872 29.344 31.5583 27.0585 22.3183C24.0328 10.086 12.8341 0.900703 6.25679e-05 0.900703V7.47074Z" fill="url(#paint0_linear_607_21934)"/>
</mask>
<g mask="url(#mask0_607_21934)">
<path fill-rule="evenodd" clip-rule="evenodd" d="M31.3032 0H47.5201V6.01776H38.0917V14.177C38.0917 19.3309 39.2699 22.4745 41.1088 24.0257C43.0718 25.6816 46.0647 26.6131 47.5201 26.6131V32.5271C44.7013 32.5271 40.6715 31.5682 37.2917 28.7171C33.7877 25.7612 31.3032 21.0418 31.3032 14.177V0ZM16.2169 47.3112H0V40.2559H9.42845V33.1342C9.42845 27.9802 7.87305 24.8367 6.03421 23.2855C4.07123 21.6295 1.45544 20.6981 0 20.6981V14.7841C2.81879 14.7841 6.84862 15.743 10.2284 18.5941C13.7324 21.5499 16.2169 26.2694 16.2169 33.1342V47.3112ZM6.25679e-05 7.47074C9.70931 7.47074 18.1755 14.6457 20.4611 23.8858C23.4867 36.118 34.6854 47.52 47.5195 47.52V41.0872C37.8102 41.0872 29.344 31.5583 27.0585 22.3183C24.0328 10.086 12.8341 0.900703 6.25679e-05 0.900703V7.47074Z" fill="url(#paint1_linear_607_21934)"/>
<g filter="url(#filter0_f_607_21934)">
<path d="M19.3921 7.10742C27.6411 -8.39145 41.8852 -1.79222 48.0288 1.81125C46.2179 0.482589 22.8362 -23.2068 17.1491 -22.9434C10.0404 -22.6141 3.31144 -21.9235 -6.50815 -11.4173C-16.3277 -0.911132 -30.0064 21.081 -21.6296 31.4481C-16.2695 38.0816 4.17228 39.7706 11.2036 28.6341C16.9093 19.5974 15.3317 14.7364 19.3921 7.10742Z" fill="#37BE8E"/>
</g>
<g filter="url(#filter1_f_607_21934)">
<path d="M49.6023 49.6319C55.9748 41.1217 63.8081 46.2656 67.1147 48.9345C66.1654 47.9893 54.5289 31.9003 51.126 31.57C46.8724 31.1571 42.81 30.9917 35.9791 36.3984C29.1482 41.8052 18.9335 53.7116 22.9237 60.5937C25.477 64.9973 37.4581 67.752 42.6928 61.7317C46.9405 56.8465 46.4655 53.8208 49.6023 49.6319Z" fill="#254848"/>
</g>
</g>
<path d="M72.6571 22.3857C66.4893 22.3857 62.1113 17.7324 62.1113 11.2066C62.1113 4.15774 67.1777 0 73.0151 0C77.7786 0 81.4958 2.75347 82.9 6.74601L79.1003 8.26042C78.0264 5.72722 76.0439 3.85486 73.0151 3.85486C69.3254 3.85486 66.4067 6.63587 66.4067 11.3168C66.4067 16.7411 70.3993 18.5309 73.4006 18.5309C76.4018 18.5309 78.7148 16.8512 79.2379 14.1253H73.5658V10.7936H83.3406V21.9176H80.2016C80.1466 20.8438 80.064 19.7424 79.9814 18.6685H79.8437C78.3017 21.0641 75.9613 22.3857 72.6571 22.3857Z" fill="#161E28"/>
<path d="M85.658 21.9176V6.55326H89.4578V8.92125H89.568C90.3389 7.43437 91.7983 6.11271 93.8909 6.11271C94.359 6.11271 94.8271 6.16778 95.3778 6.38806V10.711C94.7445 10.4907 93.9735 10.4081 93.5054 10.4081C89.9259 10.4081 89.5129 13.7398 89.5129 15.9701V21.9176H85.658Z" fill="#161E28"/>
<path d="M103.112 22.3857C98.5684 22.3857 95.1541 19.1917 95.1541 14.3181C95.1541 9.58208 98.3481 6.11271 102.836 6.11271C106.664 6.11271 110.243 8.6459 110.243 14.2905V15.3368H99.0089C99.3393 17.6498 101.074 18.9164 103.084 18.9164C104.654 18.9164 106.003 18.0628 106.691 16.4658L110.298 17.9251C109.279 20.4308 106.691 22.3857 103.112 22.3857ZM99.2017 12.6935H106.361C106.085 10.3255 104.543 9.41687 102.809 9.41687C100.826 9.41687 99.5872 10.7661 99.2017 12.6935Z" fill="#161E28"/>
<path d="M118.976 22.3857C114.433 22.3857 111.019 19.1917 111.019 14.3181C111.019 9.58208 114.213 6.11271 118.701 6.11271C122.528 6.11271 126.108 8.6459 126.108 14.2905V15.3368H114.873C115.204 17.6498 116.939 18.9164 118.949 18.9164C120.518 18.9164 121.867 18.0628 122.556 16.4658L126.163 17.9251C125.144 20.4308 122.556 22.3857 118.976 22.3857ZM115.066 12.6935H122.225C121.95 10.3255 120.408 9.41687 118.673 9.41687C116.691 9.41687 115.452 10.7661 115.066 12.6935Z" fill="#161E28"/>
<path d="M127.847 21.9176V6.55326H131.647V8.81111H131.702C132.831 6.96628 134.593 6.11271 136.465 6.11271C139.301 6.11271 141.834 8.04014 141.834 12.2254V21.9176H137.98V13.9326C137.98 11.895 137.456 9.80236 135.088 9.80236C133.271 9.80236 131.702 11.069 131.702 13.9876V21.9176H127.847Z" fill="#161E28"/>
<path d="M147.083 21.9176L155.233 0.440556H160.024L168.174 21.9176H163.796L161.649 16.3006C158.923 16.3006 156.169 16.3006 153.443 16.3006C152.727 18.1729 152.039 20.0453 151.323 21.9176H147.083ZM154.903 12.3356H160.189C159.529 10.6009 158.702 8.37055 157.601 5.36927H157.546C156.83 7.32423 155.866 9.85743 154.903 12.3356Z" fill="#161E28"/>
<path d="M174.357 22.3857C170.86 22.3857 168.382 20.651 167.666 18.0628L171.245 16.9063C171.934 18.6135 173.228 19.2192 174.329 19.2192C175.238 19.2192 176.339 18.8613 176.339 17.7599C176.339 16.6585 175.183 16.3006 174.164 15.9977L172.54 15.502C170.64 14.9238 168.382 13.7674 168.382 10.9313C168.382 7.98507 170.86 6.11271 174.164 6.11271C177.248 6.11271 179.396 7.79233 180.029 9.9951L176.477 11.1516C176.119 10.1603 175.403 9.25167 174.054 9.25167C172.98 9.25167 172.237 9.8299 172.237 10.6835C172.237 11.7849 173.724 12.2529 174.935 12.6109L176.119 12.9413C177.606 13.3543 180.442 14.1528 180.442 17.4019C180.442 20.4308 178.074 22.3857 174.357 22.3857Z" fill="#161E28"/>
<path d="M187.425 22.3857C183.928 22.3857 181.45 20.651 180.734 18.0628L184.313 16.9063C185.002 18.6135 186.296 19.2192 187.397 19.2192C188.306 19.2192 189.407 18.8613 189.407 17.7599C189.407 16.6585 188.251 16.3006 187.232 15.9977L185.608 15.502C183.708 14.9238 181.45 13.7674 181.45 10.9313C181.45 7.98507 183.928 6.11271 187.232 6.11271C190.316 6.11271 192.464 7.79233 193.097 9.9951L189.545 11.1516C189.187 10.1603 188.471 9.25167 187.122 9.25167C186.048 9.25167 185.305 9.8299 185.305 10.6835C185.305 11.7849 186.792 12.2529 188.003 12.6109L189.187 12.9413C190.674 13.3543 193.51 14.1528 193.51 17.4019C193.51 20.4308 191.142 22.3857 187.425 22.3857Z" fill="#161E28"/>
<path d="M202.09 22.3857C197.547 22.3857 194.132 19.1917 194.132 14.3181C194.132 9.58208 197.326 6.11271 201.815 6.11271C205.642 6.11271 209.221 8.6459 209.221 14.2905V15.3368H197.987C198.318 17.6498 200.052 18.9164 202.062 18.9164C203.632 18.9164 204.981 18.0628 205.669 16.4658L209.276 17.9251C208.258 20.4308 205.669 22.3857 202.09 22.3857ZM198.18 12.6935H205.339C205.064 10.3255 203.522 9.41687 201.787 9.41687C199.805 9.41687 198.565 10.7661 198.18 12.6935Z" fill="#161E28"/>
<path d="M217.273 22.3857C212.124 22.3857 212.124 18.6135 212.124 17.0165V10.0502C211.105 10.0502 210.114 10.0502 209.095 10.0502V6.55326H212.124C212.124 5.12146 212.124 3.66212 212.124 2.20278H215.979V6.55326C217.356 6.55326 218.76 6.55326 220.137 6.55326V10.0502H215.979C215.979 11.9225 215.979 13.7674 215.979 15.6397C215.979 17.0991 215.979 18.8888 218.072 18.8888C218.815 18.8888 219.531 18.6685 220.137 18.3381V21.8075C219.366 22.2205 218.347 22.3857 217.273 22.3857Z" fill="#161E28"/>
<path d="M63.2678 47.7419V26.2648H77.3105V30.0371H67.3705C67.3705 31.6341 67.3705 33.2586 67.3705 34.8557H76.7598V38.8207H67.3705C67.3705 40.5278 67.3705 42.235 67.3705 43.9421H77.5858V47.7419H63.2678Z" fill="#161E28"/>
<path d="M77.8451 47.7419C79.5247 45.1536 81.1768 42.5379 82.8564 39.9496V39.9221L77.9001 32.3775H82.3607L85.4722 37.499H85.5272C86.5736 35.7643 87.6199 34.0847 88.6662 32.3775H93.0167C91.3646 34.8832 89.7401 37.4164 88.088 39.9221V39.9496C89.7676 42.5379 91.4197 45.1536 93.0993 47.7419H88.6937C87.6474 46.0348 86.6011 44.3551 85.5272 42.648H85.4722L82.3607 47.7419H77.8451Z" fill="#161E28"/>
<path d="M100.37 48.21C95.8263 48.21 92.3845 45.0986 92.3845 40.0873C92.3845 35.1035 95.7712 31.937 100.232 31.937C103.536 31.937 106.345 33.6717 107.418 36.728L103.811 38.1874C103.206 36.3701 101.774 35.6266 100.232 35.6266C97.9189 35.6266 96.377 37.5541 96.377 40.0597C96.377 42.8132 98.1943 44.5203 100.397 44.5203C102.049 44.5203 103.481 43.5842 104.197 41.7669L107.804 43.2262C106.703 46.3376 103.894 48.21 100.37 48.21Z" fill="#161E28"/>
<path d="M108.998 47.7419V25.7141H112.852V34.6354H112.908C114.036 32.7906 115.744 31.937 117.616 31.937C120.424 31.937 122.985 33.8644 122.985 38.0497V47.7419H119.13V39.7568C119.13 37.7193 118.607 35.6266 116.239 35.6266C114.422 35.6266 112.852 36.8932 112.852 39.8119V47.7419H108.998Z" fill="#161E28"/>
<path d="M129.611 48.21C126.996 48.21 124.462 46.7507 124.462 43.7218C124.462 40.8582 126.748 39.7018 129.419 39.1235C132.888 38.3801 133.989 38.27 133.989 37.0584C133.989 35.9295 133.026 35.0759 131.539 35.0759C130.19 35.0759 129.033 35.7918 128.538 37.5265L124.93 36.315C125.894 33.0934 128.703 31.937 131.677 31.937C135.476 31.937 137.872 33.8093 137.872 37.3889V42.9509C137.872 45.4565 138.065 46.5304 138.367 47.7419H134.54C134.32 47.0811 134.237 46.4478 134.237 45.7319H134.182C133.384 47.2463 131.621 48.21 129.611 48.21ZM128.675 43.6117C128.675 44.7131 129.556 45.2363 130.74 45.2363C132.778 45.2363 134.017 43.5291 134.017 41.9596V40.7206C133.218 41.051 131.869 41.4089 131.016 41.5741C129.804 41.877 128.675 42.4552 128.675 43.6117Z" fill="#161E28"/>
<path d="M140.404 47.7419V32.3775H144.204V34.6354H144.259C145.388 32.7906 147.15 31.937 149.022 31.937C151.858 31.937 154.392 33.8644 154.392 38.0497V47.7419H150.537V39.7568C150.537 37.7193 150.014 35.6266 147.646 35.6266C145.828 35.6266 144.259 36.8932 144.259 39.8119V47.7419H140.404Z" fill="#161E28"/>
<path d="M163.744 54.2401C161.018 54.2401 157.796 53.3865 156.447 49.8345L159.944 48.568C160.687 50.2476 161.844 50.9635 163.634 50.9635C166.167 50.9635 167.543 49.394 167.543 46.0898V45.3739H167.488C166.415 47.0811 164.68 47.6593 162.945 47.6593C158.347 47.6593 155.896 44.0247 155.896 39.8394C155.896 35.2136 158.898 31.937 162.808 31.937C165.093 31.937 166.69 33.0384 167.543 34.4426H167.599V32.3775H171.398V46.2C171.398 52.4228 167.709 54.2401 163.744 54.2401ZM159.889 39.7568C159.889 42.0973 161.486 43.9697 163.744 43.9697C166.029 43.9697 167.626 42.0698 167.626 39.7568C167.626 37.4164 166.002 35.5991 163.744 35.5991C161.486 35.5991 159.889 37.4439 159.889 39.7568Z" fill="#161E28"/>
<path d="M181.036 48.21C176.493 48.21 173.078 45.016 173.078 40.1423C173.078 35.4064 176.272 31.937 180.761 31.937C184.588 31.937 188.167 34.4702 188.167 40.1148V41.1611H176.933C177.264 43.474 178.998 44.7406 181.008 44.7406C182.578 44.7406 183.927 43.8871 184.615 42.29L188.222 43.7494C187.204 46.255 184.615 48.21 181.036 48.21ZM177.126 38.5178H184.285C184.01 36.1498 182.468 35.2411 180.733 35.2411C178.751 35.2411 177.511 36.5903 177.126 38.5178Z" fill="#161E28"/>
</g>
<defs>
<filter id="filter0_f_607_21934" x="-32.6233" y="-31.3362" width="89.0435" height="76.4381" filterUnits="userSpaceOnUse" color-interpolation-filters="sRGB">
<feFlood flood-opacity="0" result="BackgroundImageFix"/>
<feBlend mode="normal" in="SourceGraphic" in2="BackgroundImageFix" result="shape"/>
<feGaussianBlur stdDeviation="4.19546" result="effect1_foregroundBlur_607_21934"/>
</filter>
<filter id="filter1_f_607_21934" x="9.82022" y="19.1815" width="69.5021" height="58.2287" filterUnits="userSpaceOnUse" color-interpolation-filters="sRGB">
<feFlood flood-opacity="0" result="BackgroundImageFix"/>
<feBlend mode="normal" in="SourceGraphic" in2="BackgroundImageFix" result="shape"/>
<feGaussianBlur stdDeviation="6.10356" result="effect1_foregroundBlur_607_21934"/>
</filter>
<linearGradient id="paint0_linear_607_21934" x1="31.0311" y1="65.3403" x2="5.90271" y2="-0.402895" gradientUnits="userSpaceOnUse">
<stop stop-color="#254848"/>
<stop offset="0.987426" stop-color="#37BE8E"/>
</linearGradient>
<linearGradient id="paint1_linear_607_21934" x1="31.0311" y1="65.3403" x2="5.90271" y2="-0.402895" gradientUnits="userSpaceOnUse">
<stop stop-color="#254848"/>
<stop offset="0.987426" stop-color="#37BE8E"/>
</linearGradient>
<clipPath id="clip0_607_21934">
<rect width="220.32" height="54" fill="white"/>
</clipPath>
</defs>
</svg>
