<svg width="147" height="38" viewBox="0 0 147 38" fill="none" xmlns="http://www.w3.org/2000/svg">
<mask id="mask0_607_8231" style="mask-type:alpha" maskUnits="userSpaceOnUse" x="0" y="0" width="32" height="33">
<path fill-rule="evenodd" clip-rule="evenodd" d="M20.886 0.984375H31.7062V4.99952H25.4154V10.4435C25.4154 13.8823 26.2015 15.9797 27.4285 17.0147C28.7382 18.1196 30.7351 18.7411 31.7062 18.7411V22.687C29.8255 22.687 27.1367 22.0472 24.8816 20.1449C22.5437 18.1727 20.886 15.0238 20.886 10.4435V0.984375ZM10.8203 32.5509H0V27.8435H6.29085V23.0918C6.29085 19.653 5.25306 17.5556 4.02614 16.5206C2.7164 15.4157 0.9711 14.7942 0 14.7942V10.8483C1.88075 10.8483 4.56953 11.4881 6.82461 13.3904C9.16251 15.3626 10.8203 18.5115 10.8203 23.0918V32.5509ZM0.000175887 5.96897C6.47838 5.96897 12.1272 10.7562 13.6522 16.9214C15.6709 25.0829 23.1429 32.6905 31.7061 32.6905V28.3984C25.2279 28.3984 19.579 22.0406 18.0541 15.8755C16.0353 7.71394 8.56329 1.58533 0.000175887 1.58533V5.96897Z" fill="url(#paint0_linear_607_8231)"/>
</mask>
<g mask="url(#mask0_607_8231)">
<path fill-rule="evenodd" clip-rule="evenodd" d="M20.886 0.984375H31.7062V4.99952H25.4154V10.4435C25.4154 13.8823 26.2015 15.9797 27.4285 17.0147C28.7382 18.1196 30.7351 18.7411 31.7062 18.7411V22.687C29.8255 22.687 27.1367 22.0472 24.8816 20.1449C22.5437 18.1727 20.886 15.0238 20.886 10.4435V0.984375ZM10.8203 32.5509H0V27.8435H6.29085V23.0918C6.29085 19.653 5.25306 17.5556 4.02614 16.5206C2.7164 15.4157 0.9711 14.7942 0 14.7942V10.8483C1.88075 10.8483 4.56953 11.4881 6.82461 13.3904C9.16251 15.3626 10.8203 18.5115 10.8203 23.0918V32.5509ZM0.000175887 5.96897C6.47838 5.96897 12.1272 10.7562 13.6522 16.9214C15.6709 25.0829 23.1429 32.6905 31.7061 32.6905V28.3984C25.2279 28.3984 19.579 22.0406 18.0541 15.8755C16.0353 7.71394 8.56329 1.58533 0.000175887 1.58533V5.96897Z" fill="url(#paint1_linear_607_8231)"/>
<g filter="url(#filter0_f_607_8231)">
<path d="M12.938 5.72704C18.4419 -4.61406 27.9458 -0.210946 32.0449 2.19335C30.8367 1.30684 15.2359 -14.4991 11.4414 -14.3233C6.69832 -14.1037 2.20864 -13.6428 -4.34318 -6.63296C-10.895 0.376925 -20.0217 15.0504 -14.4325 21.9675C-10.8562 26.3935 2.78301 27.5204 7.47447 20.09C11.2814 14.0605 10.2288 10.8172 12.938 5.72704Z" fill="#37BE8E"/>
</g>
<g filter="url(#filter1_f_607_8231)">
<path d="M33.0969 34.0996C37.3488 28.4215 42.5753 31.8536 44.7815 33.6343C44.1481 33.0036 36.3841 22.2688 34.1136 22.0484C31.2755 21.773 28.565 21.6626 24.0073 25.27C19.4495 28.8775 12.6341 36.8217 15.2965 41.4135C17 44.3517 24.9941 46.1896 28.4868 42.1728C31.321 38.9133 31.004 36.8945 33.0969 34.0996Z" fill="#7BD5B1"/>
</g>
</g>
<path d="M48.4036 15.8543C44.3066 15.8543 41.3984 12.7632 41.3984 8.42847C41.3984 3.74619 44.7638 0.984375 48.6413 0.984375C51.8055 0.984375 54.2747 2.81339 55.2075 5.46546L52.6835 6.47142C51.9701 4.78873 50.6533 3.545 48.6413 3.545C46.1905 3.545 44.2517 5.3923 44.2517 8.50163C44.2517 12.1048 46.9038 13.2936 48.8974 13.2936C50.891 13.2936 52.4274 12.1779 52.7749 10.3672H49.0071V8.15412H55.5001V15.5433H53.4151C53.3785 14.83 53.3236 14.0984 53.2687 13.3851H53.1773C52.153 14.9763 50.5984 15.8543 48.4036 15.8543Z" fill="#F8FAFA"/>
<path d="M57.0395 15.5433V5.33743H59.5636V6.91038H59.6367C60.1488 5.92272 61.1182 5.04479 62.5083 5.04479C62.8192 5.04479 63.1301 5.08137 63.4959 5.22769V8.09925C63.0753 7.95292 62.5631 7.89805 62.2522 7.89805C59.8745 7.89805 59.6001 10.1112 59.6001 11.5927V15.5433H57.0395Z" fill="#F8FAFA"/>
<path d="M68.6332 15.8543C65.6153 15.8543 63.3473 13.7326 63.3473 10.4953C63.3473 7.34935 65.469 5.04479 68.4503 5.04479C70.9926 5.04479 73.3703 6.72748 73.3703 10.477V11.172H65.908C66.1274 12.7084 67.2797 13.5497 68.6149 13.5497C69.6574 13.5497 70.5536 12.9827 71.0109 11.9219L73.4069 12.8913C72.7302 14.5557 71.0109 15.8543 68.6332 15.8543ZM66.036 9.41614H70.7914C70.6085 7.84318 69.5843 7.23961 68.432 7.23961C67.1151 7.23961 66.292 8.13582 66.036 9.41614Z" fill="#F8FAFA"/>
<path d="M79.1713 15.8543C76.1534 15.8543 73.8855 13.7326 73.8855 10.4953C73.8855 7.34935 76.0071 5.04479 78.9884 5.04479C81.5307 5.04479 83.9085 6.72748 83.9085 10.477V11.172H76.4461C76.6656 12.7084 77.8178 13.5497 79.153 13.5497C80.1956 13.5497 81.0918 12.9827 81.549 11.9219L83.945 12.8913C83.2683 14.5557 81.549 15.8543 79.1713 15.8543ZM76.5741 9.41614H81.3295C81.1466 7.84318 80.1224 7.23961 78.9701 7.23961C77.6532 7.23961 76.8302 8.13582 76.5741 9.41614Z" fill="#F8FAFA"/>
<path d="M85.0637 15.5433V5.33743H87.5878V6.83722H87.6244C88.3743 5.61178 89.5448 5.04479 90.7886 5.04479C92.6724 5.04479 94.3551 6.3251 94.3551 9.1052V15.5433H91.7945V10.2392C91.7945 8.88572 91.447 7.49567 89.8741 7.49567C88.6669 7.49567 87.6244 8.33702 87.6244 10.2758V15.5433H85.0637Z" fill="#F8FAFA"/>
<path d="M97.8414 15.5433L103.255 1.27702H106.438L111.852 15.5433H108.944L107.517 11.8121C105.706 11.8121 103.877 11.8121 102.066 11.8121C101.591 13.0559 101.134 14.2996 100.658 15.5433H97.8414ZM103.036 9.17836H106.548C106.109 8.02608 105.56 6.54458 104.828 4.55096H104.792C104.316 5.84956 103.676 7.53225 103.036 9.17836Z" fill="#F8FAFA"/>
<path d="M115.958 15.8543C113.636 15.8543 111.989 14.702 111.514 12.9827L113.892 12.2145C114.349 13.3485 115.208 13.7509 115.94 13.7509C116.544 13.7509 117.275 13.5131 117.275 12.7815C117.275 12.0499 116.507 11.8121 115.83 11.611L114.751 11.2817C113.489 10.8976 111.989 10.1295 111.989 8.24557C111.989 6.28852 113.636 5.04479 115.83 5.04479C117.879 5.04479 119.305 6.16049 119.726 7.6237L117.367 8.39189C117.129 7.73344 116.653 7.12987 115.757 7.12987C115.044 7.12987 114.55 7.51396 114.55 8.08095C114.55 8.81256 115.538 9.12349 116.342 9.36126L117.129 9.58075C118.117 9.8551 120.001 10.3855 120.001 12.5438C120.001 14.5557 118.428 15.8543 115.958 15.8543Z" fill="#F8FAFA"/>
<path d="M124.639 15.8543C122.316 15.8543 120.67 14.702 120.194 12.9827L122.572 12.2145C123.029 13.3485 123.889 13.7509 124.621 13.7509C125.224 13.7509 125.956 13.5131 125.956 12.7815C125.956 12.0499 125.188 11.8121 124.511 11.611L123.432 11.2817C122.17 10.8976 120.67 10.1295 120.67 8.24557C120.67 6.28852 122.316 5.04479 124.511 5.04479C126.559 5.04479 127.986 6.16049 128.407 7.6237L126.047 8.39189C125.809 7.73344 125.334 7.12987 124.438 7.12987C123.724 7.12987 123.231 7.51396 123.231 8.08095C123.231 8.81256 124.218 9.12349 125.023 9.36126L125.809 9.58075C126.797 9.8551 128.681 10.3855 128.681 12.5438C128.681 14.5557 127.108 15.8543 124.639 15.8543Z" fill="#F8FAFA"/>
<path d="M134.38 15.8543C131.362 15.8543 129.094 13.7326 129.094 10.4953C129.094 7.34935 131.216 5.04479 134.197 5.04479C136.74 5.04479 139.117 6.72748 139.117 10.477V11.172H131.655C131.875 12.7084 133.027 13.5497 134.362 13.5497C135.405 13.5497 136.301 12.9827 136.758 11.9219L139.154 12.8913C138.477 14.5557 136.758 15.8543 134.38 15.8543ZM131.783 9.41614H136.539C136.356 7.84318 135.331 7.23961 134.179 7.23961C132.862 7.23961 132.039 8.13582 131.783 9.41614Z" fill="#F8FAFA"/>
<path d="M144.466 15.8543C141.046 15.8543 141.046 13.3485 141.046 12.2877V7.66028C140.369 7.66028 139.71 7.66028 139.034 7.66028V5.33743H141.046C141.046 4.38634 141.046 3.41697 141.046 2.44759H143.606V5.33743C144.521 5.33743 145.454 5.33743 146.368 5.33743V7.66028H143.606C143.606 8.90401 143.606 10.1295 143.606 11.3732C143.606 12.3426 143.606 13.5314 144.996 13.5314C145.49 13.5314 145.966 13.3851 146.368 13.1656V15.4702C145.856 15.7445 145.179 15.8543 144.466 15.8543Z" fill="#F8FAFA"/>
<path d="M42.1666 32.6973V18.431H51.4946V20.9367H44.8919C44.8919 21.9976 44.8919 23.0767 44.8919 24.1375H51.1288V26.7713H44.8919C44.8919 27.9053 44.8919 29.0393 44.8919 30.1733H51.6775V32.6973H42.1666Z" fill="#F8FAFA"/>
<path d="M51.8497 32.6973C52.9654 30.978 54.0628 29.2405 55.1785 27.5212V27.5029L51.8863 22.4914H54.8493L56.9161 25.8934H56.9526C57.6477 24.7411 58.3427 23.6254 59.0377 22.4914H61.9276C60.8302 24.1558 59.751 25.8385 58.6536 27.5029V27.5212C59.7693 29.2405 60.8667 30.978 61.9824 32.6973H59.056C58.361 31.5633 57.666 30.4476 56.9526 29.3136H56.9161L54.8493 32.6973H51.8497Z" fill="#F8FAFA"/>
<path d="M66.8117 33.0082C63.7939 33.0082 61.5076 30.9415 61.5076 27.6127C61.5076 24.3021 63.7573 22.1988 66.7203 22.1988C68.9151 22.1988 70.7807 23.351 71.494 25.3813L69.098 26.3506C68.6956 25.1435 67.7445 24.6496 66.7203 24.6496C65.1839 24.6496 64.1597 25.93 64.1597 27.5944C64.1597 29.4234 65.3668 30.5574 66.83 30.5574C67.9274 30.5574 68.8785 29.9355 69.3541 28.7283L71.7501 29.6977C71.0185 31.7645 69.1529 33.0082 66.8117 33.0082Z" fill="#F8FAFA"/>
<path d="M72.543 32.6973V18.0652H75.1036V23.9912H75.1402C75.8901 22.7658 77.0241 22.1988 78.2678 22.1988C80.1334 22.1988 81.8344 23.4791 81.8344 26.2592V32.6973H79.2738V27.3932C79.2738 26.0397 78.9263 24.6496 77.3533 24.6496C76.1462 24.6496 75.1036 25.491 75.1036 27.4298V32.6973H72.543Z" fill="#F8FAFA"/>
<path d="M86.2359 33.0082C84.4983 33.0082 82.8156 32.0389 82.8156 30.027C82.8156 28.1248 84.3337 27.3566 86.1079 26.9725C88.4124 26.4787 89.144 26.4055 89.144 25.6007C89.144 24.8508 88.5039 24.2838 87.5162 24.2838C86.62 24.2838 85.8518 24.7594 85.5226 25.9117L83.1266 25.1069C83.7667 22.967 85.6323 22.1988 87.6076 22.1988C90.1317 22.1988 91.7229 23.4425 91.7229 25.8202V29.5148C91.7229 31.1792 91.851 31.8925 92.0522 32.6973H89.5098C89.3635 32.2583 89.3086 31.8377 89.3086 31.3621H89.272C88.7416 32.3681 87.5711 33.0082 86.2359 33.0082ZM85.614 29.9538C85.614 30.6854 86.1993 31.0329 86.9858 31.0329C88.3392 31.0329 89.1623 29.8989 89.1623 28.8564V28.0333C88.6319 28.2528 87.7357 28.4906 87.1687 28.6003C86.3639 28.8015 85.614 29.1856 85.614 29.9538Z" fill="#F8FAFA"/>
<path d="M93.4049 32.6973V22.4914H95.9289V23.9912H95.9655C96.7154 22.7658 97.886 22.1988 99.1297 22.1988C101.014 22.1988 102.696 23.4791 102.696 26.2592V32.6973H100.136V27.3932C100.136 26.0397 99.7882 24.6496 98.2152 24.6496C97.0081 24.6496 95.9655 25.491 95.9655 27.4298V32.6973H93.4049Z" fill="#F8FAFA"/>
<path d="M108.909 37.0138C107.098 37.0138 104.958 36.4468 104.062 34.0874L106.384 33.246C106.878 34.3617 107.647 34.8373 108.835 34.8373C110.518 34.8373 111.433 33.7947 111.433 31.5999V31.1244H111.396C110.683 32.2584 109.53 32.6424 108.378 32.6424C105.324 32.6424 103.696 30.2281 103.696 27.448C103.696 24.3753 105.689 22.1988 108.287 22.1988C109.805 22.1988 110.866 22.9304 111.433 23.8632H111.469V22.4914H113.993V31.6731C113.993 35.8066 111.542 37.0138 108.909 37.0138ZM106.348 27.3932C106.348 28.9478 107.409 30.1916 108.909 30.1916C110.427 30.1916 111.487 28.9295 111.487 27.3932C111.487 25.8385 110.408 24.6314 108.909 24.6314C107.409 24.6314 106.348 25.8568 106.348 27.3932Z" fill="#F8FAFA"/>
<path d="M120.395 33.0082C117.377 33.0082 115.109 30.8866 115.109 27.6492C115.109 24.5033 117.231 22.1988 120.212 22.1988C122.754 22.1988 125.132 23.8815 125.132 27.6309V28.326H117.67C117.889 29.8623 119.042 30.7037 120.377 30.7037C121.419 30.7037 122.315 30.1367 122.773 29.0759L125.169 30.0452C124.492 31.7096 122.773 33.0082 120.395 33.0082ZM117.798 26.5701H122.553C122.37 24.9972 121.346 24.3936 120.194 24.3936C118.877 24.3936 118.054 25.2898 117.798 26.5701Z" fill="#F8FAFA"/>
<defs>
<filter id="filter0_f_607_8231" x="-21.7416" y="-19.8978" width="59.3601" height="50.9499" filterUnits="userSpaceOnUse" color-interpolation-filters="sRGB">
<feFlood flood-opacity="0" result="BackgroundImageFix"/>
<feBlend mode="normal" in="SourceGraphic" in2="BackgroundImageFix" result="shape"/>
<feGaussianBlur stdDeviation="2.7868" result="effect1_foregroundBlur_607_8231"/>
</filter>
<filter id="filter1_f_607_8231" x="6.58878" y="13.8192" width="46.301" height="38.7775" filterUnits="userSpaceOnUse" color-interpolation-filters="sRGB">
<feFlood flood-opacity="0" result="BackgroundImageFix"/>
<feBlend mode="normal" in="SourceGraphic" in2="BackgroundImageFix" result="shape"/>
<feGaussianBlur stdDeviation="4.05424" result="effect1_foregroundBlur_607_8231"/>
</filter>
<linearGradient id="paint0_linear_607_8231" x1="20.7045" y1="44.5805" x2="3.93843" y2="0.715544" gradientUnits="userSpaceOnUse">
<stop stop-color="#254848"/>
<stop offset="0.987426" stop-color="#37BE8E"/>
</linearGradient>
<linearGradient id="paint1_linear_607_8231" x1="20.7045" y1="44.5805" x2="3.93843" y2="0.715544" gradientUnits="userSpaceOnUse">
<stop stop-color="#254848"/>
<stop offset="0.987426" stop-color="#37BE8E"/>
</linearGradient>
</defs>
</svg>
