<svg width="368" height="250" viewBox="0 0 368 250" fill="none" xmlns="http://www.w3.org/2000/svg">
<rect width="368" height="250" rx="30" fill="#DCF0E8"/>
<mask id="mask0_438_37187" style="mask-type:alpha" maskUnits="userSpaceOnUse" x="0" y="0" width="368" height="250">
<rect width="368" height="250" rx="30" fill="#E9EDED"/>
</mask>
<g mask="url(#mask0_438_37187)">
<path d="M373.089 -130.148H374.193V-131.252H373.089V-130.148ZM243.847 -130.148V-131.252H242.743V-130.148H243.847ZM373.089 -81.2619V-80.1579H374.193V-81.2619H373.089ZM297.948 -81.2619V-82.3659H296.844V-81.2619H297.948ZM321.993 65.0295L321.273 65.8666L321.993 65.0295ZM373.089 86.0486H374.193V84.9446H373.089V86.0486ZM373.089 134.092V135.196H374.193V134.092H373.089ZM291.573 103.141L292.293 102.304L291.573 103.141ZM-5.62109 255.79H-6.72509V256.894H-5.62109V255.79ZM123.621 255.79V256.894H124.725V255.79H123.621ZM-5.62109 196.881V195.777H-6.72509V196.881H-5.62109ZM69.5194 196.881V197.985H70.6234V196.881H69.5194ZM42.4688 59.0185L43.1886 58.1814L42.4688 59.0185ZM-5.62109 37.9993H-6.72509V39.1033H-5.62109V37.9993ZM-5.62109 -10.0445V-11.1485H-6.72509V-10.0445H-5.62109ZM75.8948 20.9071L75.175 21.7442L75.8948 20.9071ZM157.445 63.8824L158.518 63.6221L157.445 63.8824ZM-5.61971 -69.4688H-6.72371V-68.3648H-5.61971V-69.4688ZM373.088 255.88V256.984H374.192V255.88H373.088ZM373.088 203.622H374.192V202.518H373.088V203.622ZM210.023 51.1485L208.951 51.4088L210.023 51.1485ZM-5.61971 -125.516V-126.62H-6.72371V-125.516H-5.61971ZM373.089 -131.252H243.847V-129.044H373.089V-131.252ZM374.193 -81.2619V-130.148H371.985V-81.2619H374.193ZM297.948 -80.1579H373.089V-82.3659H297.948V-80.1579ZM299.052 -14.9789V-81.2619H296.844V-14.9789H299.052ZM322.713 64.1924C308.433 51.9131 299.052 26.7954 299.052 -14.9789H296.844C296.844 26.9859 306.244 52.9427 321.273 65.8666L322.713 64.1924ZM373.089 84.9446C367.474 84.9446 358.752 83.0997 349.451 79.5521C340.166 76.0105 330.413 70.8133 322.713 64.1924L321.273 65.8666C329.218 72.6979 339.213 78.0103 348.664 81.6152C358.1 85.2141 367.104 87.1526 373.089 87.1526V84.9446ZM374.193 134.092V86.0486H371.985V134.092H374.193ZM290.853 103.978C318.019 127.338 350.403 135.196 373.089 135.196V132.988C350.845 132.988 318.997 125.267 292.293 102.304L290.853 103.978ZM242.743 -14.9789C242.743 41.0726 262.657 79.7322 290.853 103.978L292.293 102.304C264.639 78.5246 244.951 40.5051 244.951 -14.9789H242.743ZM242.743 -130.148V-14.9789H244.951V-130.148H242.743ZM-5.62109 256.894H123.621V254.686H-5.62109V256.894ZM-6.72509 196.881V255.79H-4.51709V196.881H-6.72509ZM69.5194 195.777H-5.62109V197.985H69.5194V195.777ZM68.4154 139.027V196.881H70.6234V139.027H68.4154ZM41.749 59.8556C56.0778 72.1768 68.4154 97.3521 68.4154 139.027H70.6234C70.6234 96.9624 58.1693 71.0632 43.1886 58.1814L41.749 59.8556ZM-5.62109 39.1033C-0.0195193 39.1033 7.94163 40.9417 16.4842 44.4841C25.0093 48.0192 34.0279 53.2162 41.749 59.8556L43.1886 58.1814C35.2656 51.3685 26.039 46.0559 17.3299 42.4445C8.63832 38.8403 0.376546 36.8953 -5.62109 36.8953V39.1033ZM-6.72509 -10.0445V37.9993H-4.51709V-10.0445H-6.72509ZM76.6146 20.07C49.4484 -3.29013 17.0644 -11.1485 -5.62109 -11.1485V-8.94048C16.6224 -8.94048 48.4702 -1.21918 75.175 21.7442L76.6146 20.07ZM124.725 139.027C124.725 82.9754 104.811 44.3158 76.6146 20.07L75.175 21.7442C102.829 45.5234 122.517 83.5428 122.517 139.027H124.725ZM124.725 255.79V139.027H122.517V255.79H124.725ZM158.518 63.6221C140.195 -11.8863 72.318 -70.5728 -5.61971 -70.5728V-68.3648C71.1992 -68.3648 138.266 -10.476 156.372 64.1428L158.518 63.6221ZM373.088 254.776C322.289 254.776 274.664 231.772 236.707 196.338C198.749 160.904 170.522 113.093 158.518 63.6221L156.372 64.1428C168.481 114.043 196.935 162.231 235.2 197.952C273.466 233.674 321.606 256.984 373.088 256.984V254.776ZM371.984 203.622V255.88H374.192V203.622H371.984ZM208.951 51.4088C218.107 89.1428 239.632 127.44 268.59 156.316C297.545 185.189 334.022 204.726 373.088 204.726V202.518C334.776 202.518 298.828 183.35 270.149 154.752C241.472 126.157 220.155 88.2177 211.096 50.8881L208.951 51.4088ZM-5.61971 -124.412C96.1005 -124.412 184.945 -47.5195 208.951 51.4088L211.096 50.8881C186.876 -48.9261 97.2228 -126.62 -5.61971 -126.62V-124.412ZM-4.51571 -69.4688V-125.516H-6.72371V-69.4688H-4.51571Z" fill="#174140" fill-opacity="0.15"/>
<ellipse cx="184.048" cy="125" rx="50.048" ry="50" fill="white"/>
<path d="M195.667 111.667H172.333V138.334H195.667V111.667ZM169 109.987C169 109.074 169.746 108.334 170.664 108.334H197.333C198.253 108.334 198.999 109.08 199 110.001L199 139.988C199 140.915 198.258 141.667 197.344 141.667H170.656C169.741 141.667 169 140.908 169 140.014V109.987ZM182.821 126.869L189.892 119.798L192.249 122.155L182.821 131.583L176.34 125.102L178.697 122.745L182.821 126.869Z" fill="#31706E"/>
</g>
</svg>
