<svg width="368" height="250" viewBox="0 0 368 250" fill="none" xmlns="http://www.w3.org/2000/svg">
<rect width="368" height="250" rx="30" fill="#DCF0E8"/>
<mask id="mask0_438_40964" style="mask-type:alpha" maskUnits="userSpaceOnUse" x="0" y="0" width="368" height="250">
<rect width="368" height="250" rx="30" fill="#E9EDED"/>
</mask>
<g mask="url(#mask0_438_40964)">
<path d="M373.081 -130.148H374.185V-131.252H373.081V-130.148ZM243.839 -130.148V-131.252H242.735V-130.148H243.839ZM373.081 -81.2619V-80.1579H374.185V-81.2619H373.081ZM297.94 -81.2619V-82.3659H296.836V-81.2619H297.94ZM321.985 65.0295L321.266 65.8666L321.985 65.0295ZM373.081 86.0486H374.185V84.9446H373.081V86.0486ZM373.081 134.092V135.196H374.185V134.092H373.081ZM291.565 103.141L292.285 102.304L291.565 103.141ZM-5.63086 255.79H-6.73486V256.894H-5.63086V255.79ZM123.611 255.79V256.894H124.715V255.79H123.611ZM-5.63086 196.881V195.777H-6.73486V196.881H-5.63086ZM69.5096 196.881V197.985H70.6136V196.881H69.5096ZM42.459 59.0185L43.1789 58.1814L42.459 59.0185ZM-5.63086 37.9993H-6.73486V39.1033H-5.63086V37.9993ZM-5.63086 -10.0445V-11.1485H-6.73486V-10.0445H-5.63086ZM75.8851 20.9071L75.1653 21.7442L75.8851 20.9071ZM157.435 63.8824L158.508 63.6221L157.435 63.8824ZM-5.62948 -69.4688H-6.73348V-68.3648H-5.62948V-69.4688ZM373.079 255.88V256.984H374.183V255.88H373.079ZM373.079 203.622H374.183V202.518H373.079V203.622ZM210.014 51.1485L208.941 51.4088L210.014 51.1485ZM-5.62948 -125.516V-126.62H-6.73348V-125.516H-5.62948ZM373.081 -131.252H243.839V-129.044H373.081V-131.252ZM374.185 -81.2619V-130.148H371.977V-81.2619H374.185ZM297.94 -80.1579H373.081V-82.3659H297.94V-80.1579ZM299.044 -14.9789V-81.2619H296.836V-14.9789H299.044ZM322.705 64.1924C308.425 51.9131 299.044 26.7954 299.044 -14.9789H296.836C296.836 26.9859 306.236 52.9427 321.266 65.8666L322.705 64.1924ZM373.081 84.9446C367.467 84.9446 358.745 83.0997 349.443 79.5521C340.158 76.0105 330.405 70.8133 322.705 64.1924L321.266 65.8666C329.21 72.6979 339.205 78.0103 348.657 81.6152C358.092 85.2141 367.096 87.1526 373.081 87.1526V84.9446ZM374.185 134.092V86.0486H371.977V134.092H374.185ZM290.845 103.978C318.011 127.338 350.395 135.196 373.081 135.196V132.988C350.837 132.988 318.99 125.267 292.285 102.304L290.845 103.978ZM242.735 -14.9789C242.735 41.0726 262.649 79.7322 290.845 103.978L292.285 102.304C264.631 78.5246 244.943 40.5051 244.943 -14.9789H242.735ZM242.735 -130.148V-14.9789H244.943V-130.148H242.735ZM-5.63086 256.894H123.611V254.686H-5.63086V256.894ZM-6.73486 196.881V255.79H-4.52686V196.881H-6.73486ZM69.5096 195.777H-5.63086V197.985H69.5096V195.777ZM68.4056 139.027V196.881H70.6136V139.027H68.4056ZM41.7392 59.8556C56.068 72.1768 68.4056 97.3521 68.4056 139.027H70.6136C70.6136 96.9624 58.1595 71.0632 43.1789 58.1814L41.7392 59.8556ZM-5.63086 39.1033C-0.029285 39.1033 7.93187 40.9417 16.4744 44.4841C24.9995 48.0192 34.0182 53.2162 41.7393 59.8556L43.1789 58.1814C35.2559 51.3685 26.0292 46.0559 17.3202 42.4445C8.62855 38.8403 0.36678 36.8953 -5.63086 36.8953V39.1033ZM-6.73486 -10.0445V37.9993H-4.52686V-10.0445H-6.73486ZM76.6049 20.07C49.4386 -3.29013 17.0546 -11.1485 -5.63086 -11.1485V-8.94048C16.6126 -8.94048 48.4604 -1.21918 75.1653 21.7442L76.6049 20.07ZM124.715 139.027C124.715 82.9754 104.801 44.3158 76.6049 20.07L75.1653 21.7442C102.819 45.5234 122.507 83.5428 122.507 139.027H124.715ZM124.715 255.79V139.027H122.507V255.79H124.715ZM158.508 63.6221C140.186 -11.8863 72.3082 -70.5728 -5.62948 -70.5728V-68.3648C71.1894 -68.3648 138.256 -10.476 156.363 64.1428L158.508 63.6221ZM373.079 254.776C322.279 254.776 274.654 231.772 236.697 196.338C198.739 160.904 170.513 113.093 158.508 63.6221L156.363 64.1428C168.471 114.043 196.926 162.231 235.191 197.952C273.456 233.674 321.596 256.984 373.079 256.984V254.776ZM371.975 203.622V255.88H374.183V203.622H371.975ZM208.941 51.4088C218.097 89.1428 239.623 127.44 268.58 156.316C297.535 185.189 334.013 204.726 373.079 204.726V202.518C334.766 202.518 298.818 183.35 270.139 154.752C241.463 126.157 220.145 88.2177 211.087 50.8881L208.941 51.4088ZM-5.62948 -124.412C96.0907 -124.412 184.935 -47.5195 208.941 51.4088L211.087 50.8881C186.866 -48.9261 97.2131 -126.62 -5.62948 -126.62V-124.412ZM-4.52548 -69.4688V-125.516H-6.73348V-69.4688H-4.52548Z" fill="#174140" fill-opacity="0.15"/>
</g>
<ellipse cx="184.048" cy="125" rx="50.048" ry="50" fill="white"/>
<path d="M184.001 141.667C174.796 141.667 167.334 134.205 167.334 125.001C167.334 115.796 174.796 108.334 184.001 108.334C193.205 108.334 200.667 115.796 200.667 125.001C200.667 134.205 193.205 141.667 184.001 141.667ZM180.184 137.78C178.58 134.377 177.596 130.624 177.38 126.667H170.77C171.431 131.961 175.195 136.292 180.184 137.78ZM180.718 126.667C180.969 130.732 182.13 134.55 184.001 137.921C185.871 134.55 187.032 130.732 187.283 126.667H180.718ZM197.231 126.667H190.622C190.405 130.624 189.422 134.377 187.817 137.78C192.807 136.292 196.571 131.961 197.231 126.667ZM170.77 123.334H177.38C177.596 119.377 178.58 115.624 180.184 112.222C175.195 113.71 171.431 118.04 170.77 123.334ZM180.718 123.334H187.283C187.032 119.269 185.871 115.451 184.001 112.081C182.13 115.451 180.969 119.269 180.718 123.334ZM187.817 112.222C189.422 115.624 190.405 119.377 190.622 123.334H197.231C196.571 118.04 192.807 113.71 187.817 112.222Z" fill="#297263"/>
</svg>
