<svg width="368" height="250" viewBox="0 0 368 250" fill="none" xmlns="http://www.w3.org/2000/svg">
<rect width="368" height="250" rx="30" fill="#DCF0E8"/>
<mask id="mask0_438_35642" style="mask-type:alpha" maskUnits="userSpaceOnUse" x="0" y="0" width="368" height="250">
<rect width="368" height="250" rx="30" fill="#D3E458"/>
</mask>
<g mask="url(#mask0_438_35642)">
<path d="M373.097 -130.148H374.201V-131.252H373.097V-130.148ZM243.855 -130.148V-131.252H242.751V-130.148H243.855ZM373.097 -81.2619V-80.1579H374.201V-81.2619H373.097ZM297.956 -81.2619V-82.3659H296.852V-81.2619H297.956ZM322.001 65.0295L321.281 65.8666L322.001 65.0295ZM373.097 86.0486H374.201V84.9446H373.097V86.0486ZM373.097 134.092V135.196H374.201V134.092H373.097ZM291.581 103.141L292.3 102.304L291.581 103.141ZM-5.61523 255.789H-6.71923V256.893H-5.61523V255.789ZM123.626 255.789V256.893H124.73V255.789H123.626ZM-5.61523 196.881V195.777H-6.71923V196.881H-5.61523ZM69.5252 196.881V197.985H70.6292V196.881H69.5252ZM42.4747 59.0179L43.1945 58.1808L42.4747 59.0179ZM-5.61523 37.9987H-6.71923V39.1027H-5.61523V37.9987ZM-5.61523 -10.0451V-11.149H-6.71923V-10.0451H-5.61523ZM75.9007 20.9065L75.1809 21.7436L75.9007 20.9065ZM157.452 63.883L156.379 64.1433L157.452 63.883ZM-5.61279 -69.4683H-6.71679V-68.3643H-5.61279V-69.4683ZM373.095 255.88V256.984H374.199V255.88H373.095ZM373.095 203.622H374.199V202.518H373.095V203.622ZM210.03 51.149L208.957 51.4093L210.03 51.149ZM-5.61279 -125.516V-126.62H-6.71679V-125.516H-5.61279ZM373.097 -131.252H243.855V-129.044H373.097V-131.252ZM374.201 -81.2619V-130.148H371.993V-81.2619H374.201ZM297.956 -80.1579H373.097V-82.3659H297.956V-80.1579ZM299.06 -14.9789V-81.2619H296.852V-14.9789H299.06ZM322.721 64.1924C308.441 51.9131 299.06 26.7954 299.06 -14.9789H296.852C296.852 26.9859 306.252 52.9427 321.281 65.8666L322.721 64.1924ZM373.097 84.9446C367.482 84.9446 358.76 83.0997 349.459 79.5521C340.174 76.0105 330.421 70.8133 322.721 64.1924L321.281 65.8666C329.226 72.6979 339.221 78.0103 348.672 81.6152C358.108 85.2141 367.112 87.1526 373.097 87.1526V84.9446ZM374.201 134.092V86.0486H371.993V134.092H374.201ZM290.861 103.978C318.027 127.338 350.411 135.196 373.097 135.196V132.988C350.853 132.988 319.005 125.267 292.3 102.304L290.861 103.978ZM242.751 -14.9789C242.751 41.0726 262.665 79.7322 290.861 103.978L292.3 102.304C264.647 78.5246 244.959 40.5051 244.959 -14.9789H242.751ZM242.751 -130.148V-14.9789H244.959V-130.148H242.751ZM-5.61523 256.893H123.626V254.685H-5.61523V256.893ZM-6.71923 196.881V255.789H-4.51123V196.881H-6.71923ZM69.5252 195.777H-5.61523V197.985H69.5252V195.777ZM68.4212 139.026V196.881H70.6292V139.026H68.4212ZM41.7549 59.855C56.0837 72.1762 68.4212 97.3515 68.4212 139.026H70.6292C70.6292 96.9619 58.1752 71.0627 43.1945 58.1808L41.7549 59.855ZM-5.61523 39.1027C-0.01366 39.1027 7.94749 40.9412 16.49 44.4835C25.0151 48.0186 34.0338 53.2157 41.7549 59.855L43.1945 58.1808C35.2715 51.3679 26.0448 46.0553 17.3358 42.4439C8.64418 38.8397 0.382405 36.8947 -5.61523 36.8947V39.1027ZM-6.71923 -10.0451V37.9987H-4.51123V-10.0451H-6.71923ZM76.6205 20.0695C49.4542 -3.29071 17.0702 -11.149 -5.61523 -11.149V-8.94106C16.6282 -8.94106 48.4761 -1.21976 75.1809 21.7436L76.6205 20.0695ZM124.73 139.026C124.73 82.9748 104.817 44.3152 76.6205 20.0695L75.1809 21.7436C102.834 45.5228 122.522 83.5423 122.522 139.026H124.73ZM124.73 255.789V139.026H122.522V255.789H124.73ZM158.525 63.6227C140.202 -11.8858 72.3249 -70.5723 -5.61279 -70.5723V-68.3643C71.2061 -68.3643 138.272 -10.4755 156.379 64.1433L158.525 63.6227ZM373.095 254.776C322.296 254.776 274.671 231.773 236.714 196.339C198.756 160.904 170.529 113.093 158.525 63.6227L156.379 64.1433C168.488 114.044 196.942 162.232 235.207 197.953C273.473 233.675 321.613 256.984 373.095 256.984V254.776ZM371.991 203.622V255.88H374.199V203.622H371.991ZM208.957 51.4093C218.114 89.1434 239.639 127.441 268.597 156.316C297.552 185.189 334.029 204.726 373.095 204.726V202.518C334.783 202.518 298.835 183.35 270.156 154.753C241.479 126.157 220.161 88.2183 211.103 50.8887L208.957 51.4093ZM-5.61279 -124.412C96.1074 -124.412 184.952 -47.519 208.957 51.4093L211.103 50.8887C186.883 -48.9256 97.2298 -126.62 -5.61279 -126.62V-124.412ZM-4.50879 -69.4683V-125.516H-6.71679V-69.4683H-4.50879Z" fill="#174140" fill-opacity="0.15"/>
<ellipse cx="184.048" cy="125" rx="50.048" ry="50" fill="white"/>
<path d="M190.667 131.667C193.429 131.667 195.667 133.906 195.667 136.667C195.667 139.429 193.429 141.667 190.667 141.667C187.906 141.667 185.667 139.429 185.667 136.667C185.667 133.906 187.906 131.667 190.667 131.667ZM174.001 125.001C177.683 125.001 180.667 127.985 180.667 131.667C180.667 135.349 177.683 138.334 174.001 138.334C170.319 138.334 167.334 135.349 167.334 131.667C167.334 127.985 170.319 125.001 174.001 125.001ZM190.667 135.001C189.747 135.001 189.001 135.747 189.001 136.667C189.001 137.588 189.747 138.334 190.667 138.334C191.588 138.334 192.334 137.588 192.334 136.667C192.334 135.747 191.588 135.001 190.667 135.001ZM174.001 128.334C172.16 128.334 170.667 129.826 170.667 131.667C170.667 133.508 172.16 135.001 174.001 135.001C175.842 135.001 177.334 133.508 177.334 131.667C177.334 129.826 175.842 128.334 174.001 128.334ZM188.167 108.334C193.23 108.334 197.334 112.438 197.334 117.501C197.334 122.563 193.23 126.667 188.167 126.667C183.105 126.667 179.001 122.563 179.001 117.501C179.001 112.438 183.105 108.334 188.167 108.334ZM188.167 111.667C184.946 111.667 182.334 114.279 182.334 117.501C182.334 120.722 184.946 123.334 188.167 123.334C191.389 123.334 194.001 120.722 194.001 117.501C194.001 114.279 191.389 111.667 188.167 111.667Z" fill="#31706E"/>
</g>
</svg>
